<?xml version="1.0" standalone="no"?>
<!DOCTYPE svg PUBLIC "-//W3C//DTD SVG 20010904//EN"
 "http://www.w3.org/TR/2001/REC-SVG-20010904/DTD/svg10.dtd">
<svg version="1.0" xmlns="http://www.w3.org/2000/svg"
 width="1500.000000pt" height="1500.000000pt" viewBox="0 0 1500.000000 1500.000000"
 preserveAspectRatio="xMidYMid meet">
<metadata>
Created by potrace 1.14, written by Peter Selinger 2001-2017
</metadata>
<g transform="translate(0.000000,1500.000000) scale(0.100000,-0.100000)"
fill="#000000" stroke="none">
<path d="M6434 10904 c4 -10 -3 -14 -24 -14 -16 0 -35 -7 -44 -15 -8 -9 -21
-14 -28 -13 -7 2 -13 -7 -14 -20 -1 -23 -14 -45 -14 -24 0 6 -7 9 -15 6 -8 -4
-15 -15 -15 -25 0 -10 -4 -19 -10 -19 -5 0 -9 -10 -7 -22 1 -14 -3 -22 -10
-21 -13 3 -38 -35 -29 -44 3 -3 1 -15 -5 -26 -8 -14 -8 -18 0 -13 6 4 16 4 22
0 8 -5 8 -9 -1 -14 -17 -10 -4 -94 16 -111 12 -10 20 -10 34 -1 16 10 18 9 14
-3 -4 -8 -10 -15 -15 -15 -5 0 0 -9 12 -21 12 -12 39 -22 69 -26 41 -5 49 -3
52 13 3 17 4 17 20 0 18 -18 43 -13 32 6 -4 7 -2 8 4 4 6 -4 28 0 48 9 43 18
47 18 39 5 -5 -9 7 -14 26 -12 4 1 9 -12 13 -29 3 -17 10 -28 15 -25 11 7 11
56 -1 79 -6 12 -6 23 2 33 7 7 10 20 7 28 -4 9 2 17 15 22 17 5 20 12 15 45
-3 22 -1 39 5 39 5 0 6 5 3 11 -4 6 -14 8 -22 5 -9 -4 -13 -1 -10 6 2 7 9 12
16 11 6 -2 10 12 8 37 -2 36 -8 44 -28 42 -4 -1 -5 7 -2 17 3 13 -2 23 -16 31
-12 6 -18 16 -15 22 4 7 3 8 -4 4 -7 -4 -12 -2 -12 4 0 7 -7 10 -15 6 -8 -3
-23 -2 -32 1 -15 6 -14 8 7 14 23 7 22 7 -7 6 -17 -1 -30 -4 -27 -8 5 -8 -21
-19 -44 -18 -12 0 -10 3 6 10 31 12 23 34 -12 35 -19 1 -25 -3 -22 -12z m-94
-389 c0 -19 -4 -23 -17 -18 -10 4 -12 8 -6 10 7 3 9 11 6 19 -3 8 0 14 6 14 6
0 11 -11 11 -25z m85 -5 c3 -5 1 -10 -4 -10 -6 0 -11 5 -11 10 0 6 2 10 4 10
3 0 8 -4 11 -10z m-25 -10 c0 -5 -4 -10 -10 -10 -5 0 -10 5 -10 10 0 6 5 10
10 10 6 0 10 -4 10 -10z m-35 -10 c3 -5 1 -10 -4 -10 -6 0 -11 5 -11 10 0 6 2
10 4 10 3 0 8 -4 11 -10z"/>
<path d="M8515 10910 c-9 -14 3 -30 22 -30 9 0 14 -3 10 -6 -8 -9 -59 5 -53
14 2 4 -10 8 -27 9 -29 1 -30 1 -7 -6 21 -6 22 -8 8 -14 -10 -3 -25 -4 -33 -1
-9 4 -15 0 -15 -8 0 -8 -12 -20 -26 -27 -19 -8 -25 -17 -21 -31 3 -11 2 -19
-2 -18 -20 2 -26 -6 -28 -42 -2 -23 1 -38 6 -35 6 3 12 1 15 -4 3 -5 -4 -12
-17 -15 -22 -6 -22 -7 -3 -21 11 -8 14 -15 8 -15 -21 0 -14 -58 7 -65 12 -4
18 -12 14 -21 -3 -8 0 -21 7 -28 8 -10 8 -21 2 -33 -12 -23 -12 -72 -1 -79 5
-3 12 8 15 25 4 17 9 30 13 29 19 -2 31 3 26 12 -8 13 -4 13 39 -5 20 -9 41
-13 47 -10 5 4 9 3 8 -2 -4 -20 3 -22 26 -7 14 9 23 20 20 24 -3 5 0 12 6 16
8 4 9 -3 4 -27 -4 -25 -3 -30 4 -19 9 12 11 12 11 1 0 -20 63 -8 97 18 14 12
21 21 15 21 -5 0 -12 7 -16 15 -4 12 -2 13 14 3 14 -9 22 -9 35 2 9 7 14 19
11 26 -3 7 -1 16 4 19 15 9 12 65 -2 65 -8 1 -6 6 5 14 27 21 17 81 -15 81 -7
0 -13 9 -14 20 -2 33 -15 63 -30 69 -8 3 -14 0 -14 -6 0 -21 -13 1 -14 24 -1
13 -7 22 -14 20 -7 -1 -20 4 -28 13 -9 8 -28 15 -44 15 -20 0 -28 4 -24 13 5
15 -42 22 -51 7z m162 -390 c-5 -31 -17 -36 -17 -7 0 15 4 27 10 27 5 0 9 -9
7 -20z m-57 -26 c0 -8 -4 -12 -10 -9 -5 3 -10 10 -10 16 0 5 5 9 10 9 6 0 10
-7 10 -16z m30 -4 c0 -5 -5 -10 -11 -10 -5 0 -7 5 -4 10 3 6 8 10 11 10 2 0 4
-4 4 -10z"/>
<path d="M7439 10505 c0 0 -2 -10 -3 -22 -2 -16 3 -23 15 -23 10 0 20 4 23 8
6 10 42 9 52 -1 4 -4 15 -7 24 -7 26 0 19 44 -8 48 -12 2 -22 -1 -22 -7 0 -6
-9 -11 -20 -11 -11 0 -20 4 -20 9 0 7 -29 12 -41 6z"/>
<path d="M7340 10468 c0 -23 4 -28 23 -28 25 0 62 32 50 43 -11 12 -53 7 -53
-5 0 -9 -4 -8 -10 2 -8 12 -10 9 -10 -12z"/>
<path d="M7587 10483 c-4 -3 0 -15 10 -25 20 -22 63 -24 63 -3 0 8 4 15 10 15
5 0 7 -7 4 -15 -4 -10 0 -15 14 -15 12 0 24 -5 27 -10 4 -7 13 -7 25 0 15 8
21 6 29 -9 12 -22 58 -33 83 -20 14 7 16 6 12 -6 -7 -16 12 -20 33 -7 12 7 3
35 -11 33 -18 -3 -20 0 -6 9 12 8 10 10 -9 10 -13 0 -30 -8 -38 -17 -13 -17
-14 -16 -10 5 3 12 2 22 -1 23 -4 0 -15 2 -24 5 -45 11 -54 11 -65 1 -9 -7
-13 -5 -13 6 0 17 -67 29 -74 12 -3 -6 -5 -5 -5 3 -1 13 -43 17 -54 5z"/>
<path d="M7280 10464 c0 -12 -4 -14 -12 -7 -12 10 -21 10 -65 -1 -10 -3 -21
-5 -25 -5 -3 -1 -4 -11 -1 -23 4 -21 3 -22 -10 -5 -8 9 -25 17 -38 17 -17 0
-20 -3 -10 -9 9 -6 10 -11 2 -15 -6 -4 -11 -4 -11 1 0 4 -4 1 -10 -7 -6 -9 -5
-17 3 -22 21 -13 40 -9 33 7 -4 12 -2 13 12 6 25 -13 71 -2 83 20 8 15 14 17
29 9 12 -7 21 -7 25 0 3 5 14 10 23 10 11 0 18 8 18 20 0 14 -7 20 -23 20 -15
0 -23 -6 -23 -16z"/>
<path d="M8337 10440 c-12 -12 -15 -20 -8 -25 6 -3 11 -2 11 4 0 6 7 8 15 5
16 -7 19 4 7 22 -5 8 -13 6 -25 -6z"/>
<path d="M6636 10443 c-12 -12 -6 -25 9 -19 8 3 15 1 15 -4 0 -6 -7 -10 -15
-10 -13 0 -14 -4 -5 -20 6 -11 15 -18 21 -15 5 4 9 -6 9 -22 0 -22 2 -25 10
-13 6 10 10 11 10 3 0 -7 -1 -16 -2 -19 -2 -3 5 -10 15 -15 9 -6 17 -17 17
-26 0 -13 3 -13 15 -3 21 17 19 40 -4 40 -10 0 -21 9 -24 20 -3 11 -1 18 4 14
14 -8 11 9 -7 34 -12 17 -19 20 -29 12 -9 -8 -11 -5 -8 13 5 23 -17 44 -31 30z"/>
<path d="M7045 10393 c-3 -13 -10 -21 -16 -18 -6 5 -5 13 3 23 12 16 11 16 -6
2 -11 -8 -22 -14 -25 -12 -10 6 -11 -12 -2 -27 12 -19 65 0 70 25 2 10 8 22
15 26 6 4 1 6 -11 5 -14 -1 -24 -10 -28 -24z"/>
<path d="M7916 10412 c7 -4 13 -16 15 -26 5 -25 58 -44 70 -25 10 16 7 31 -5
29 -5 -1 -13 4 -18 12 -8 10 -9 9 -4 -4 3 -10 1 -20 -4 -23 -5 -3 -12 6 -16
20 -4 17 -13 25 -28 25 -12 0 -16 -3 -10 -8z"/>
<path d="M8304 10398 c-3 -4 -2 -13 1 -18 4 -6 1 -9 -6 -8 -6 2 -14 -3 -17
-11 -2 -8 0 -11 6 -7 6 4 8 -2 5 -14 -3 -11 -14 -20 -24 -20 -23 0 -25 -23 -4
-40 8 -7 16 -10 16 -6 1 3 2 9 3 14 4 18 35 66 36 54 0 -7 4 -11 9 -8 5 3 7
16 4 29 -3 15 -2 18 4 9 7 -9 12 -6 21 12 10 23 9 25 -19 24 -16 -1 -32 -5
-35 -10z"/>
<path d="M6905 10359 c-63 -22 -80 -36 -65 -55 6 -6 7 -14 3 -17 -12 -13 15
-7 66 14 28 12 52 26 52 30 3 20 5 25 12 37 11 16 3 15 -68 -9z"/>
<path d="M8027 10368 c7 -12 9 -17 12 -37 1 -8 95 -51 113 -51 5 0 7 4 3 9 -3
5 -1 12 5 16 16 10 1 26 -44 45 -61 26 -100 34 -89 18z"/>
<path d="M8172 10304 c-11 -12 -10 -15 2 -20 8 -3 12 -12 9 -20 -7 -18 4 -18
23 0 19 19 18 33 -3 45 -13 6 -22 5 -31 -5z"/>
<path d="M6784 10295 c-3 -8 1 -21 9 -30 19 -19 31 -19 24 -1 -3 8 2 17 11 21
14 5 14 7 2 15 -22 14 -40 12 -46 -5z"/>
<path d="M6744 10267 c-3 -10 -12 -17 -20 -17 -7 0 -18 -8 -23 -17 -6 -10 -11
-14 -11 -9 0 5 -6 3 -14 -4 -8 -6 -14 -17 -12 -23 1 -7 1 -8 -2 -4 -2 4 -10 3
-18 -4 -8 -6 -11 -16 -7 -22 4 -6 1 -7 -6 -3 -18 12 -54 -24 -41 -39 11 -14
47 -8 66 9 7 6 25 21 40 33 53 41 79 65 64 58 -11 -5 -11 -3 1 7 15 12 15 16
3 32 -12 17 -14 17 -20 3z"/>
<path d="M8244 10274 c3 -7 -2 -15 -11 -18 -14 -6 -14 -8 3 -22 10 -9 12 -13
4 -9 -8 4 1 -7 20 -23 19 -17 38 -28 42 -26 5 3 8 -2 8 -10 0 -9 4 -16 9 -16
5 0 17 -7 25 -16 22 -21 56 -26 63 -8 7 19 -16 46 -34 40 -9 -4 -11 -1 -7 5 9
16 -18 31 -29 16 -6 -8 -7 -5 -4 9 3 16 -4 25 -32 40 -20 10 -42 26 -49 34 -8
8 -11 10 -8 4z"/>
<path d="M6567 10100 c3 -11 9 -20 14 -20 11 0 11 3 3 24 -9 23 -23 20 -17 -4z"/>
<path d="M8417 10113 c-10 -9 -8 -33 2 -33 5 0 11 9 14 20 5 20 -3 26 -16 13z"/>
<path d="M6513 10080 c-3 -11 -11 -20 -17 -20 -7 0 -38 -27 -69 -61 -81 -86
-113 -151 -81 -163 21 -8 40 4 24 14 -9 6 -6 10 9 15 11 3 21 9 21 13 0 4 20
29 45 56 35 40 42 54 34 68 -11 20 5 26 16 7 9 -14 45 19 45 42 0 12 6 16 23
12 l22 -4 -23 13 c-12 8 -19 17 -16 21 4 4 -1 7 -10 7 -10 0 -20 -9 -23 -20z"/>
<path d="M8461 10069 c-1 -38 31 -81 44 -59 3 5 11 8 16 4 7 -4 7 -10 0 -18
-7 -8 4 -28 38 -68 27 -31 50 -55 52 -53 2 1 10 -3 17 -11 10 -11 10 -14 0
-14 -8 0 -9 -3 -2 -10 15 -15 44 -1 41 19 -8 50 -144 210 -166 196 -7 -3 -11
3 -11 15 0 12 -4 19 -9 16 -5 -4 -12 0 -14 6 -3 7 -6 -3 -6 -23z"/>
<path d="M8430 10070 c-13 -8 -12 -10 3 -10 9 0 17 5 17 10 0 12 -1 12 -20 0z"/>
<path d="M6284 9808 c-4 -13 -7 -27 -6 -32 6 -19 -10 -45 -24 -39 -10 3 -12 0
-8 -10 3 -8 1 -18 -5 -22 -6 -3 -11 -15 -11 -26 0 -10 -7 -19 -15 -19 -9 0
-15 -9 -15 -25 0 -21 3 -23 23 -16 12 5 24 17 26 27 2 11 8 22 15 26 7 5 5 8
-6 8 -10 0 -18 4 -18 9 0 5 9 7 20 4 15 -4 19 -2 15 10 -4 8 0 17 8 20 9 3 18
19 22 36 4 17 11 31 16 31 5 0 9 8 9 18 0 15 2 15 11 2 9 -13 10 -13 6 0 -2 8
-15 16 -29 18 -20 2 -28 -2 -34 -20z"/>
<path d="M8670 9810 c0 -11 4 -20 9 -20 5 0 12 -14 16 -31 4 -17 13 -33 22
-36 8 -3 12 -12 8 -20 -4 -12 0 -14 15 -10 11 3 20 1 20 -4 0 -5 -8 -9 -17 -9
-12 0 -14 -3 -7 -8 7 -4 13 -15 15 -26 2 -10 14 -22 27 -27 19 -7 22 -5 22 16
0 15 -6 25 -14 25 -12 0 -31 52 -27 74 1 5 -5 6 -13 3 -14 -6 -30 20 -24 39 1
5 -1 19 -6 32 -9 28 -46 30 -46 2z"/>
<path d="M6174 9586 c-21 -24 -34 -55 -28 -69 3 -8 -2 -17 -10 -20 -9 -4 -16
-14 -16 -23 0 -9 -11 -42 -24 -73 -28 -67 -56 -178 -50 -196 3 -7 -2 -15 -10
-18 -9 -4 -16 -14 -16 -22 0 -9 4 -14 9 -10 5 3 13 0 17 -6 4 -8 3 -9 -4 -5
-8 5 -12 0 -12 -13 0 -12 -5 -21 -12 -21 -6 0 -9 -3 -5 -6 3 -3 2 -16 -2 -28
-5 -12 -12 -57 -16 -101 -3 -43 -7 -82 -7 -85 -4 -41 4 -60 25 -61 16 -1 17
-3 5 -6 -9 -2 -15 -10 -12 -16 2 -7 -4 -22 -15 -34 -17 -18 -18 -23 -6 -33 8
-6 19 -9 25 -5 5 3 10 -1 10 -10 0 -11 -6 -15 -17 -11 -14 4 -19 -1 -21 -22
-6 -67 -2 -87 20 -104 l23 -17 -24 6 c-19 5 -22 3 -18 -13 7 -23 19 -82 23
-109 4 -27 27 -89 36 -96 5 -3 9 -17 10 -32 1 -15 6 -27 10 -27 4 0 8 -6 8
-13 0 -19 24 -67 33 -67 5 0 5 -4 2 -10 -3 -5 -2 -10 3 -10 6 0 8 -9 5 -20 -4
-13 0 -20 10 -20 8 0 21 -8 28 -17 8 -10 9 -14 2 -10 -7 5 -6 -4 3 -23 9 -16
20 -30 25 -30 5 0 9 -6 9 -13 0 -15 101 -112 113 -109 4 1 2 -7 -5 -18 -7 -11
-17 -20 -23 -20 -19 0 -38 18 -31 29 5 7 1 9 -8 5 -9 -3 -36 6 -61 20 -24 15
-47 25 -49 24 -2 -2 -14 9 -26 25 -12 15 -28 27 -37 27 -8 0 -28 9 -44 21 -16
11 -29 17 -29 12 0 -4 -7 1 -16 12 -13 17 -16 18 -24 5 -8 -13 -10 -13 -10 2
0 9 -5 20 -12 24 -7 5 -8 3 -3 -6 5 -9 4 -11 -3 -6 -7 4 -12 14 -12 22 0 8
-10 14 -25 14 -14 0 -25 5 -25 11 0 6 -7 9 -15 5 -8 -3 -15 -2 -15 3 0 14 -38
20 -43 7 -3 -7 4 -23 14 -37 10 -13 19 -21 19 -16 0 4 9 -2 21 -14 13 -13 29
-19 41 -16 15 4 18 2 14 -10 -6 -14 -4 -14 11 -2 9 8 14 9 10 2 -4 -6 -3 -14
3 -18 5 -3 10 -2 10 4 0 5 9 9 20 8 15 -1 19 -6 14 -22 -5 -17 -3 -17 16 5 21
25 21 25 10 1 -11 -21 -9 -26 16 -48 31 -26 124 -76 124 -66 0 3 16 -10 35
-30 20 -21 40 -37 44 -37 4 0 22 -7 40 -16 23 -11 29 -20 22 -27 -6 -6 -7 -16
-1 -28 7 -12 6 -20 0 -24 -17 -11 -2 -23 23 -18 14 3 29 -3 41 -16 11 -12 26
-21 33 -21 8 0 22 -9 31 -19 21 -24 69 -40 57 -20 -5 8 3 4 17 -8 27 -26 44
-29 51 -10 8 21 -12 45 -43 52 -16 4 -30 11 -30 16 0 5 -9 9 -21 9 -11 0 -18
4 -15 9 4 5 -5 8 -18 7 -14 -2 -27 3 -30 11 -4 9 -1 12 7 8 6 -4 2 2 -11 14
-14 13 -19 22 -11 26 6 4 8 18 4 32 -3 15 -2 22 4 19 5 -4 12 -2 16 3 3 6 35
-5 73 -23 37 -18 87 -38 112 -45 25 -7 65 -19 90 -27 25 -9 59 -18 75 -21 17
-3 36 -9 42 -15 7 -6 22 -8 32 -5 11 3 22 -1 24 -8 3 -7 17 -10 36 -7 17 2 28
8 25 13 -3 5 0 9 5 9 6 0 11 -4 11 -10 0 -5 16 -16 34 -24 45 -19 126 -27 126
-14 0 6 6 5 15 -2 8 -7 15 -9 15 -5 0 4 6 2 14 -4 7 -6 24 -10 37 -10 13 1 49
-2 80 -5 49 -6 57 -5 63 11 7 17 8 17 22 -1 16 -23 49 -27 194 -27 143 0 176
5 197 27 10 11 15 15 11 10 -17 -21 -6 -25 60 -20 37 3 78 5 91 5 13 -1 30 4
37 10 8 6 14 8 14 4 0 -4 7 -2 15 5 9 7 15 8 15 2 0 -6 17 -9 43 -6 38 4 57
10 107 33 8 4 30 4 48 0 23 -5 35 -3 38 6 3 7 14 11 25 8 10 -3 25 -1 32 5 6
6 27 12 45 15 18 3 40 11 49 19 9 7 17 12 17 10 1 -2 15 -1 31 3 65 13 113 30
180 62 41 20 71 30 73 24 2 -6 8 -8 13 -5 6 3 7 -4 4 -19 -4 -14 -2 -28 4 -32
8 -4 3 -13 -11 -26 -13 -12 -17 -18 -11 -14 8 4 11 1 7 -8 -3 -9 -14 -12 -31
-9 -18 3 -24 1 -19 -7 5 -7 0 -11 -13 -11 -12 0 -21 -4 -21 -9 0 -5 -12 -12
-27 -16 -24 -6 -52 -30 -53 -46 -1 -19 36 -17 58 3 14 13 22 17 17 9 -12 -20
36 -4 57 20 9 10 21 19 28 19 6 0 24 10 40 21 16 12 35 19 44 16 18 -7 31 8
16 18 -6 4 -7 12 0 24 6 12 5 22 -1 28 -7 7 -1 16 22 27 18 9 36 16 40 16 4 0
24 16 44 37 19 20 35 33 35 30 0 -10 93 40 124 66 25 22 27 27 16 48 -11 24
-11 24 9 -1 19 -23 20 -24 15 -3 -4 16 -2 21 10 19 8 -1 18 -5 22 -8 9 -10 34
3 34 17 0 8 8 11 19 8 11 -3 27 3 39 15 11 11 22 18 25 16 8 -8 36 42 29 52
-11 15 -32 15 -38 0 -3 -8 -12 -12 -20 -9 -8 3 -14 0 -14 -6 0 -6 -3 -10 -7
-10 -24 4 -43 -3 -43 -15 0 -8 -5 -18 -12 -22 -7 -5 -8 -3 -3 5 10 17 -35 -9
-52 -29 -7 -8 -13 -11 -13 -7 0 5 -12 0 -27 -11 -16 -11 -38 -22 -50 -26 -11
-4 -27 -14 -34 -22 -10 -13 -10 -17 2 -25 10 -7 6 -8 -13 -5 -26 4 -47 -7 -31
-17 5 -2 2 -2 -5 0 -7 1 -27 -4 -44 -13 -16 -8 -36 -13 -43 -10 -9 3 -12 0 -9
-9 9 -22 -35 -30 -51 -8 -7 10 -10 19 -5 21 20 7 110 96 110 109 0 7 4 13 9
13 5 0 16 14 25 30 9 19 10 28 3 23 -7 -4 -6 0 2 10 7 9 20 17 27 17 12 0 17
18 13 46 0 4 3 10 8 13 13 9 46 82 51 111 2 13 6 27 10 30 9 6 32 69 36 95 4
27 16 86 23 109 4 16 1 18 -18 13 l-24 -6 23 17 c22 17 26 37 20 104 -2 21 -7
26 -20 22 -12 -3 -18 0 -18 10 0 9 6 13 13 10 8 -3 20 2 27 11 8 10 9 15 1 15
-6 0 -11 7 -11 15 0 8 -5 15 -11 15 -6 0 -9 7 -5 15 3 8 1 15 -4 15 -6 0 -10
-8 -10 -17 0 -14 -2 -15 -9 -5 -7 11 -9 11 -14 -2 -4 -9 2 -21 14 -30 12 -8
16 -15 9 -18 -8 -2 -12 -36 -13 -96 -1 -50 -5 -92 -9 -92 -4 0 -5 -6 -2 -14 3
-8 -1 -27 -9 -43 -8 -15 -13 -45 -12 -65 2 -22 -2 -41 -10 -48 -8 -6 -11 -18
-8 -26 3 -8 0 -14 -6 -14 -6 0 -11 -8 -11 -18 0 -10 -4 -22 -9 -27 -5 -6 -14
-28 -21 -50 -7 -22 -21 -50 -32 -62 -11 -12 -17 -26 -14 -31 3 -6 -5 -19 -19
-30 -13 -11 -22 -22 -19 -25 3 -3 -3 -12 -15 -19 -12 -7 -21 -18 -21 -25 0 -6
-9 -18 -20 -26 -11 -8 -17 -17 -13 -20 3 -4 -1 -7 -9 -7 -9 0 -26 -11 -39 -25
-20 -21 -200 -119 -219 -120 -3 0 -26 -8 -50 -19 -25 -10 -54 -22 -65 -27 -11
-4 -46 -13 -77 -19 -32 -6 -60 -16 -63 -21 -4 -5 -20 -9 -36 -9 -17 0 -28 -4
-25 -9 3 -5 -1 -12 -10 -15 -8 -3 -12 -2 -9 4 3 5 -10 7 -32 5 -21 -3 -63 -7
-93 -10 -30 -3 -71 -8 -90 -10 -48 -6 -207 -15 -252 -15 -20 1 -39 -4 -43 -10
-3 -6 -11 -8 -16 -4 -6 3 -46 6 -89 6 -43 0 -83 -3 -89 -6 -5 -4 -12 -2 -16 4
-9 15 -65 13 -65 -2 0 -9 -3 -8 -10 2 -6 10 -33 15 -97 17 -48 2 -101 5 -118
8 -16 2 -59 7 -95 10 -102 10 -123 13 -151 24 -15 5 -30 7 -33 4 -3 -3 -12 -1
-19 5 -7 6 -38 16 -68 22 -30 6 -63 15 -74 19 -84 34 -142 60 -215 95 -47 22
-88 40 -92 39 -4 -2 -9 6 -13 16 -3 10 -20 26 -38 35 -18 8 -28 16 -22 16 5 0
-1 7 -13 16 -12 8 -22 21 -22 27 0 7 -9 18 -21 25 -12 7 -19 16 -16 19 3 3 -5
15 -18 28 -14 12 -22 25 -18 29 3 3 -3 16 -14 29 -11 12 -31 52 -43 90 -13 37
-28 67 -33 67 -5 0 -7 6 -4 14 3 8 0 20 -8 26 -8 7 -12 24 -10 42 2 17 -2 46
-10 65 -8 18 -12 40 -9 48 4 8 2 15 -2 15 -5 0 -10 41 -11 91 -1 64 -5 94 -15
100 -10 7 -10 9 0 9 7 0 10 5 7 10 -3 6 -1 10 5 10 6 0 9 14 7 35 -3 19 0 35
5 35 5 0 2 7 -6 16 -19 19 -20 25 -3 18 8 -3 13 5 14 23 1 16 3 45 6 66 2 20
0 37 -5 37 -5 0 -4 8 1 19 6 10 7 21 4 25 -3 3 -2 6 4 6 5 0 10 6 10 13 0 7 3
26 7 42 7 28 7 29 -8 10 -15 -20 -15 -20 -9 3 3 12 9 22 14 22 12 0 52 137 46
160 -3 12 1 24 11 30 10 5 13 10 8 10 -5 0 -4 6 2 13 6 6 11 17 12 22 5 20 12
40 19 55 4 8 7 23 5 33 -1 9 2 17 7 17 6 0 8 4 4 9 -3 5 2 16 10 24 8 9 12 22
9 30 -3 8 0 18 6 22 9 6 9 10 -1 16 -18 11 -22 11 -35 -5z m172 -1695 c-5 -7
-15 -7 -33 2 l-26 12 24 6 c27 7 45 -4 35 -20z m2359 9 c-8 -12 -44 -19 -51
-9 -10 16 5 26 31 22 13 -3 23 -9 20 -13z"/>
<path d="M8785 9591 c-3 -5 0 -13 6 -16 5 -4 8 -14 5 -22 -3 -8 1 -21 9 -30 8
-8 13 -19 10 -24 -4 -5 -2 -9 4 -9 5 0 8 -8 7 -17 -2 -10 1 -25 5 -33 8 -16
20 -51 20 -60 1 -3 5 -11 11 -17 6 -7 7 -13 2 -13 -5 0 -2 -5 8 -10 10 -6 14
-18 11 -30 -3 -11 -2 -28 2 -37 4 -10 9 -25 10 -33 4 -32 27 -90 36 -90 5 0 9
-7 9 -15 0 -8 5 -15 12 -15 6 0 8 -3 4 -7 -4 -5 -14 1 -22 12 -14 19 -15 18
-8 -10 4 -16 7 -35 7 -42 0 -7 4 -13 8 -13 3 0 9 -11 11 -25 3 -14 2 -25 -2
-25 -4 0 -5 -17 -3 -37 3 -21 5 -50 6 -66 1 -18 6 -26 14 -23 17 7 16 1 -3
-18 -8 -9 -11 -16 -5 -16 6 0 8 -6 5 -14 -4 -10 2 -12 20 -9 32 6 33 15 22
138 -10 104 -18 145 -27 145 -5 0 -9 9 -9 21 0 13 -4 18 -12 13 -7 -4 -8 -3
-4 5 4 6 12 9 17 6 5 -4 9 1 9 10 0 8 -7 18 -16 22 -8 3 -13 11 -10 18 6 18
-22 129 -50 196 -13 31 -24 64 -24 73 0 9 -7 19 -15 22 -9 4 -13 14 -10 28 4
13 -3 31 -18 49 -25 28 -42 34 -52 18z"/>
<path d="M6816 9369 c-27 -4 -52 -11 -55 -16 -3 -4 -17 -10 -31 -11 -14 -2
-26 -8 -28 -12 -2 -4 -11 -6 -21 -3 -11 3 -24 -3 -32 -14 -8 -10 -31 -27 -52
-38 -22 -11 -48 -36 -60 -57 -11 -21 -24 -38 -29 -38 -4 0 -8 -9 -8 -19 0 -11
-5 -23 -11 -26 -12 -8 -9 -77 5 -87 12 -8 37 2 31 13 -3 5 1 20 10 33 9 14 17
29 17 33 0 4 4 7 9 5 5 -1 13 8 18 20 11 27 33 46 84 72 24 12 36 25 33 33 -3
8 -1 11 4 8 6 -3 10 -2 10 4 0 6 6 8 14 5 7 -3 20 1 27 8 15 15 104 38 145 38
31 0 31 -12 -1 -36 -14 -10 -25 -26 -25 -34 0 -10 -3 -11 -8 -4 -12 20 -73
-17 -99 -61 -49 -83 -80 -194 -63 -224 5 -10 6 -21 3 -25 -3 -3 0 -6 8 -6 12
0 12 -2 0 -9 -9 -6 -14 -24 -13 -46 2 -39 9 -58 21 -51 4 3 7 -7 7 -21 -1 -15
5 -28 13 -31 8 -3 11 0 7 6 -4 6 2 8 14 5 22 -6 26 -19 8 -25 -8 -3 -2 -17 16
-41 18 -24 33 -34 43 -30 10 4 14 2 10 -4 -10 -16 56 -43 105 -43 39 -1 89 5
96 10 1 2 6 3 10 4 5 0 16 9 26 19 10 9 22 17 27 17 17 0 57 42 63 67 4 13 11
21 16 18 6 -3 10 -1 10 5 0 6 7 18 15 26 12 13 19 55 14 90 0 4 5 11 13 15 9
6 7 9 -9 9 -16 0 -23 -8 -28 -32 -4 -18 -12 -39 -17 -45 -6 -7 -8 -13 -4 -13
6 0 -23 -37 -59 -74 -11 -11 -20 -27 -21 -34 -2 -8 -6 -17 -10 -20 -4 -4 -4 1
-1 11 4 11 1 17 -8 17 -8 0 -15 -4 -15 -9 0 -11 -35 -22 -77 -25 -17 -1 -35
-5 -39 -9 -11 -11 -24 -8 -24 6 0 7 -12 18 -27 25 -41 18 -98 62 -95 74 4 16
-20 39 -34 34 -7 -3 -16 -1 -19 3 -3 5 2 12 10 15 11 4 13 10 6 23 -16 30 -24
57 -22 72 2 8 -2 10 -11 5 -10 -6 -10 -5 -2 7 7 8 12 34 12 58 1 54 16 94 56
146 63 81 90 101 129 99 20 -1 37 1 37 6 0 4 16 7 35 5 23 -1 32 2 27 9 -13
22 -10 34 9 29 10 -3 16 -10 13 -17 -3 -6 1 -3 8 6 13 16 18 15 64 -7 27 -14
53 -25 58 -25 5 0 15 -8 22 -17 12 -16 15 -16 24 -3 5 8 10 20 10 27 0 16
-109 83 -136 83 -11 0 -24 3 -27 6 -14 14 -188 23 -251 13z m129 -59 c3 -5 1
-10 -4 -10 -6 0 -11 5 -11 10 0 6 2 10 4 10 3 0 8 -4 11 -10z m-110 -590 c3
-5 1 -10 -4 -10 -6 0 -11 5 -11 10 0 6 2 10 4 10 3 0 8 -4 11 -10z"/>
<path d="M8037 9374 c-3 -3 -27 -8 -54 -10 -67 -5 -107 -18 -164 -55 -50 -32
-56 -43 -39 -69 9 -13 12 -13 23 0 6 8 38 28 71 43 55 27 59 27 73 10 8 -10
12 -13 9 -7 -3 7 3 14 13 17 14 3 18 -1 17 -17 -1 -17 4 -20 27 -18 15 2 27 0
27 -5 0 -5 12 -8 28 -8 39 2 71 -19 121 -81 54 -65 72 -104 73 -164 0 -25 5
-51 12 -59 8 -12 8 -13 -2 -7 -9 5 -13 3 -11 -5 2 -15 -6 -42 -22 -71 -7 -14
-3 -21 20 -33 18 -9 32 -11 36 -5 12 19 8 82 -6 91 -12 7 -12 9 0 9 8 0 11 3
8 6 -3 4 -2 15 3 25 31 56 -86 311 -130 284 -5 -3 -12 0 -16 6 -4 8 -9 7 -15
-2 -7 -11 -9 -11 -9 1 0 8 -11 24 -25 34 -32 24 -32 36 -1 36 41 0 130 -23
145 -38 7 -7 20 -11 27 -8 8 3 14 1 14 -5 0 -6 4 -7 10 -4 5 3 7 0 4 -8 -3 -8
9 -21 33 -33 51 -26 73 -45 84 -72 5 -12 12 -21 16 -20 5 2 9 -1 10 -5 1 -4 9
-19 18 -33 9 -13 13 -28 10 -33 -6 -11 19 -21 31 -13 14 10 18 82 5 82 -6 0
-11 7 -11 17 0 9 -10 30 -23 47 -13 17 -26 38 -29 46 -3 8 -23 24 -44 35 -22
11 -45 28 -53 38 -8 11 -21 17 -32 14 -10 -3 -20 0 -21 5 -2 5 -16 11 -31 11
-15 1 -27 5 -27 9 0 14 -190 35 -203 22z m33 -64 c0 -5 -5 -10 -11 -10 -5 0
-7 5 -4 10 3 6 8 10 11 10 2 0 4 -4 4 -10z"/>
<path d="M7130 9213 c0 -21 2 -24 15 -13 8 7 15 16 15 20 0 4 -7 10 -15 14
-11 4 -15 -2 -15 -21z"/>
<path d="M7850 9230 c-13 -8 -13 -11 3 -27 16 -16 17 -16 17 10 0 30 0 30 -20
17z"/>
<path d="M7145 9170 c3 -5 11 -10 16 -10 6 0 7 5 4 10 -3 6 -11 10 -16 10 -6
0 -7 -4 -4 -10z"/>
<path d="M7183 9150 c0 -35 3 -37 16 -11 8 14 7 22 -3 30 -10 8 -13 4 -13 -19z"/>
<path d="M7801 9167 c-8 -10 -7 -18 3 -32 11 -16 13 -15 13 14 0 35 -1 36 -16
18z"/>
<path d="M7835 9169 c-11 -17 1 -21 15 -4 8 9 8 15 2 15 -6 0 -14 -5 -17 -11z"/>
<path d="M7200 9110 c0 -5 5 -10 10 -10 6 0 10 5 10 10 0 6 -4 10 -10 10 -5 0
-10 -4 -10 -10z"/>
<path d="M7780 9110 c0 -5 5 -10 10 -10 6 0 10 5 10 10 0 6 -4 10 -10 10 -5 0
-10 -4 -10 -10z"/>
<path d="M7202 9050 c1 -23 5 -43 9 -46 10 -6 31 31 22 40 -3 3 -1 6 6 6 9 0
9 5 1 20 -19 36 -40 25 -38 -20z"/>
<path d="M7760 9070 c-8 -15 -8 -20 1 -20 7 0 9 -3 6 -6 -9 -9 12 -46 22 -40
4 3 8 23 9 46 2 45 -19 56 -38 20z"/>
<path d="M7225 8991 c-3 -5 -1 -12 5 -16 5 -3 10 1 10 9 0 18 -6 21 -15 7z"/>
<path d="M7760 8984 c0 -8 5 -12 10 -9 6 4 8 11 5 16 -9 14 -15 11 -15 -7z"/>
<path d="M7765 8912 c10 -7 11 -10 14 -61 0 -17 14 -42 31 -61 17 -18 30 -36
30 -41 0 -12 46 -59 58 -59 6 0 20 -10 32 -22 11 -12 20 -19 20 -15 0 3 20 0
44 -7 31 -10 59 -11 91 -5 50 9 89 31 77 43 -4 5 0 6 9 4 9 -1 29 10 43 25 27
29 33 47 16 47 -18 0 -10 18 10 23 12 3 18 1 14 -5 -4 -6 -1 -9 6 -6 14 4 25
48 12 49 -4 0 -17 2 -28 5 -23 4 -47 -16 -42 -34 3 -12 -54 -56 -94 -74 -16
-7 -28 -18 -28 -25 0 -14 -13 -17 -24 -6 -4 4 -22 8 -39 9 -42 3 -77 14 -77
25 0 5 -7 9 -15 9 -8 0 -13 -6 -11 -12 1 -7 1 -10 -1 -6 -3 4 -3 9 -2 10 2 2
-8 14 -21 29 -39 40 -70 79 -64 79 4 0 2 6 -4 13 -5 6 -13 27 -17 45 -5 24
-12 32 -28 32 -12 0 -17 -4 -12 -8z m415 -192 c0 -5 -5 -10 -11 -10 -5 0 -7 5
-4 10 3 6 8 10 11 10 2 0 4 -4 4 -10z"/>
<path d="M6635 8690 c3 -5 8 -10 11 -10 2 0 4 5 4 10 0 6 -5 10 -11 10 -5 0
-7 -4 -4 -10z"/>
<path d="M8350 8689 c0 -5 5 -7 10 -4 6 3 10 8 10 11 0 2 -4 4 -10 4 -5 0 -10
-5 -10 -11z"/>
<path d="M6722 8683 c-6 -3 -10 -9 -6 -14 7 -12 44 -12 44 0 0 11 -21 19 -38
14z"/>
<path d="M8253 8683 c-7 -3 -13 -9 -13 -14 0 -12 37 -12 44 0 7 11 -14 20 -31
14z"/>
<path d="M6775 8670 c3 -5 10 -10 16 -10 5 0 9 5 9 10 0 6 -7 10 -16 10 -8 0
-12 -4 -9 -10z"/>
<path d="M8200 8670 c0 -5 4 -10 9 -10 6 0 13 5 16 10 3 6 -1 10 -9 10 -9 0
-16 -4 -16 -10z"/>
<path d="M7486 8533 c-2 -3 -34 -6 -70 -8 -64 -3 -125 -32 -127 -59 -6 -84 -4
-128 7 -161 7 -22 9 -41 4 -43 -5 -2 -6 -10 -3 -18 3 -7 9 -11 14 -8 5 3 8 2
7 -3 -5 -15 32 -94 41 -88 5 3 7 -3 4 -13 -3 -13 6 -27 29 -44 49 -37 77 -44
94 -21 13 17 15 17 28 0 30 -38 106 13 145 98 13 28 24 55 24 62 0 7 4 10 8 8
4 -3 9 2 12 9 3 8 2 16 -3 18 -5 2 -3 21 4 43 11 33 13 74 7 161 -1 6 -18 22
-38 36 -28 19 -50 25 -83 23 -25 -1 -57 2 -72 6 -14 4 -29 5 -32 2z m-141
-263 c3 -5 1 -10 -4 -10 -6 0 -11 5 -11 10 0 6 2 10 4 10 3 0 8 -4 11 -10z
m325 -2 c0 -4 -4 -8 -9 -8 -6 0 -12 4 -15 8 -3 5 1 9 9 9 8 0 15 -4 15 -9z"/>
<path d="M5379 8438 c-29 -32 -59 -80 -60 -95 0 -5 -2 -18 -5 -30 -8 -28 15
-123 28 -123 6 0 8 -9 5 -20 -3 -14 3 -26 20 -40 14 -11 20 -20 12 -20 -8 0
-4 -7 9 -16 12 -8 22 -21 22 -29 0 -8 5 -17 12 -21 7 -5 9 -2 4 7 -4 8 1 4 12
-8 11 -13 31 -23 44 -24 22 0 22 -1 3 -9 -11 -5 -17 -9 -12 -11 17 -4 23 -6
42 -14 11 -5 36 -9 57 -10 20 0 36 -4 35 -10 -1 -5 12 -11 28 -11 17 -1 46 -3
65 -5 26 -3 35 0 38 13 6 29 -38 48 -120 50 -46 1 -76 6 -75 13 1 5 -6 9 -15
9 -10 -1 -16 1 -15 5 4 11 -43 52 -53 46 -6 -4 -14 5 -20 19 -5 14 -15 26 -21
26 -7 0 -9 3 -6 7 4 3 1 13 -7 22 -8 9 -19 35 -25 58 -6 23 -18 49 -27 58 -14
13 -14 15 3 16 10 0 13 3 6 6 -8 3 -11 14 -7 29 4 15 2 24 -5 24 -6 0 -11 5
-11 11 0 5 3 8 8 6 4 -3 13 1 20 9 7 8 9 14 5 14 -16 1 57 29 87 34 46 7 48
14 7 31 -50 20 -54 20 -88 -17z m1 -242 c0 -3 -4 -8 -10 -11 -5 -3 -10 -1 -10
4 0 6 5 11 10 11 6 0 10 -2 10 -4z"/>
<path d="M9258 8448 c2 -10 8 -21 13 -24 5 -3 9 -14 9 -26 0 -14 5 -18 16 -14
10 4 13 2 7 -7 -15 -25 -12 -67 6 -77 22 -11 31 -4 31 27 0 13 6 23 13 23 16
0 47 31 47 47 0 13 -51 14 -66 2 -7 -5 -15 3 -24 25 -14 38 -62 59 -52 24z"/>
<path d="M9531 8454 c-39 -16 -37 -23 9 -30 30 -5 103 -33 87 -34 -4 0 -2 -6
5 -14 7 -8 16 -12 21 -9 4 2 7 -1 7 -6 0 -6 -5 -11 -10 -11 -13 0 -9 -52 5
-62 6 -5 6 -8 -2 -8 -6 0 -19 -24 -28 -52 -10 -29 -24 -60 -31 -69 -8 -9 -11
-19 -7 -22 3 -4 1 -7 -6 -7 -6 0 -16 -12 -21 -26 -6 -14 -14 -23 -20 -19 -5 3
-17 -2 -27 -12 -10 -10 -30 -26 -43 -36 -14 -10 -18 -15 -10 -11 9 4 12 3 7
-2 -5 -5 -23 -10 -40 -10 -111 -5 -130 -8 -149 -24 -29 -23 -18 -53 16 -44 14
3 42 7 63 7 21 1 37 7 36 12 -1 6 17 11 40 11 23 1 56 7 72 14 28 11 28 13 10
20 -18 8 -17 9 7 9 17 1 29 8 33 21 3 11 11 20 16 20 6 0 7 -6 4 -12 -3 -7 0
-4 7 6 7 11 21 28 31 38 9 10 14 18 10 18 -3 0 2 9 13 21 10 12 18 30 16 40
-2 10 1 19 6 19 14 0 35 96 28 125 -4 14 -6 27 -6 30 2 25 -80 125 -102 125
-7 -1 -28 -7 -47 -16z m109 -264 c0 -5 -2 -10 -4 -10 -3 0 -8 5 -11 10 -3 6
-1 10 4 10 6 0 11 -4 11 -10z"/>
<path d="M5540 8439 c-13 -23 -13 -22 16 -37 19 -10 24 -8 38 12 14 21 14 25
0 30 -8 3 -12 2 -9 -4 9 -15 -4 -30 -21 -23 -11 4 -12 9 -4 18 7 9 8 15 1 19
-6 4 -15 -3 -21 -15z"/>
<path d="M5703 8453 c4 -3 -1 -15 -10 -26 -10 -10 -17 -21 -15 -23 7 -11 0
-15 -10 -6 -18 14 -68 12 -68 -3 0 -15 32 -45 48 -45 7 0 12 -11 12 -24 0 -30
16 -42 35 -26 14 11 15 56 2 77 -6 9 -3 11 7 7 11 -4 16 0 16 14 0 12 5 24 10
27 18 11 10 35 -12 35 -12 0 -18 -3 -15 -7z"/>
<path d="M5765 8450 c3 -5 8 -10 11 -10 2 0 4 5 4 10 0 6 -5 10 -11 10 -5 0
-7 -4 -4 -10z"/>
<path d="M9220 8449 c0 -5 5 -7 10 -4 6 3 10 8 10 11 0 2 -4 4 -10 4 -5 0 -10
-5 -10 -11z"/>
<path d="M9435 8450 c-4 -7 -2 -16 5 -20 9 -6 7 -10 -9 -15 -12 -3 -19 -10
-16 -15 6 -10 55 8 55 20 0 3 -6 14 -13 25 -11 14 -16 15 -22 5z"/>
<path d="M9402 8443 c-6 -2 -10 -9 -6 -14 8 -14 21 -11 21 6 0 8 -1 15 -1 14
-1 0 -7 -3 -14 -6z"/>
<path d="M5788 8422 c-3 -11 2 -23 13 -30 27 -17 29 -15 13 18 -18 35 -20 36
-26 12z"/>
<path d="M9188 8410 c-9 -17 -13 -30 -7 -30 5 0 12 7 15 15 4 8 10 13 14 10 4
-3 11 2 14 11 3 8 2 13 -3 9 -5 -3 -11 -1 -13 5 -1 5 -11 -4 -20 -20z"/>
<path d="M5802 8358 c3 -7 9 -13 14 -13 5 0 15 -4 23 -9 10 -6 12 -5 7 2 -4 7
-16 17 -28 23 -16 9 -19 8 -16 -3z"/>
<path d="M9173 8353 c-10 -10 -14 -15 -8 -11 5 3 14 6 20 6 5 0 11 5 13 11 5
16 -3 14 -25 -6z"/>
<path d="M5817 8310 c3 -11 9 -17 14 -15 10 7 1 35 -11 35 -5 0 -6 -9 -3 -20z"/>
<path d="M9167 8315 c-4 -8 -2 -17 2 -20 5 -2 11 4 14 15 6 23 -8 27 -16 5z"/>
<path d="M5815 8271 c-3 -5 -1 -12 4 -16 5 -3 8 -14 6 -24 -2 -11 2 -27 9 -36
11 -15 12 -15 12 2 0 10 4 33 8 51 7 28 5 32 -13 32 -11 0 -22 -4 -26 -9z"/>
<path d="M9146 8248 c4 -18 8 -41 8 -51 1 -36 24 12 24 49 0 27 -4 34 -20 34
-17 0 -19 -4 -12 -32z"/>
<path d="M7490 8055 c0 -8 5 -15 10 -15 6 0 10 7 10 15 0 8 -4 15 -10 15 -5 0
-10 -7 -10 -15z"/>
<path d="M5759 7988 c0 -2 -2 -19 -4 -39 -2 -29 3 -41 26 -63 16 -15 29 -32
29 -37 0 -5 9 -9 20 -9 12 0 25 -10 32 -25 6 -14 15 -25 19 -25 5 0 6 -7 3
-15 -4 -8 1 -17 10 -21 9 -3 16 -12 16 -18 0 -15 46 -57 54 -49 3 3 13 -10 21
-30 8 -21 17 -37 19 -37 1 0 0 19 -4 43 -10 67 -37 105 -55 77 -3 -5 -11 -10
-18 -10 -8 0 -8 3 1 12 13 13 16 48 4 48 -4 0 -14 -6 -22 -12 -12 -11 -12 -10
-3 2 15 20 -13 84 -33 76 -8 -3 -14 1 -14 9 0 8 -4 15 -10 15 -5 0 -9 3 -8 8
1 4 -4 18 -11 31 -20 36 -68 82 -72 69z m61 -109 c0 -6 -4 -7 -10 -4 -5 3 -10
11 -10 16 0 6 5 7 10 4 6 -3 10 -11 10 -16z"/>
<path d="M9204 7966 c-25 -27 -49 -68 -46 -78 1 -5 -2 -8 -8 -8 -5 0 -10 -7
-10 -15 0 -8 -6 -12 -14 -9 -20 8 -48 -56 -33 -76 9 -12 9 -13 -3 -2 -8 6 -18
12 -22 12 -12 0 -9 -35 4 -48 9 -9 9 -12 1 -12 -7 0 -15 5 -18 10 -3 6 -10 10
-15 10 -13 0 -42 -59 -37 -73 2 -7 0 -22 -4 -34 -14 -38 0 -26 16 14 8 20 18
33 22 29 10 -9 84 77 78 91 -2 7 -1 13 4 13 4 0 13 11 19 25 7 15 20 25 32 25
11 0 20 3 20 8 0 4 13 22 30 40 22 24 29 41 27 64 -3 39 -16 43 -43 14z m-12
-88 c-7 -7 -12 -8 -12 -2 0 14 12 26 19 19 2 -3 -1 -11 -7 -17z"/>
<path d="M6213 7855 c0 -8 4 -12 9 -9 4 3 8 9 8 15 0 5 -4 9 -8 9 -5 0 -9 -7
-9 -15z"/>
<path d="M8770 7861 c0 -6 4 -12 8 -15 5 -3 9 1 9 9 0 8 -4 15 -9 15 -4 0 -8
-4 -8 -9z"/>
<path d="M6194 7803 c-12 -10 -20 -27 -18 -38 2 -11 -2 -23 -8 -26 -8 -5 -8
-19 0 -51 15 -56 11 -88 -12 -112 -13 -13 -16 -21 -8 -24 7 -2 12 -8 12 -13 0
-4 -7 -6 -15 -3 -8 4 -15 1 -15 -5 0 -6 5 -11 10 -11 17 0 11 -17 -8 -22 -17
-5 -82 -116 -82 -141 0 -7 -10 -32 -22 -57 -11 -25 -22 -50 -24 -57 -1 -6 -7
-28 -14 -48 -7 -20 -10 -39 -7 -41 3 -3 -6 -22 -19 -41 -23 -35 -33 -80 -15
-68 5 3 13 0 17 -6 4 -8 3 -9 -4 -5 -7 4 -19 -6 -30 -24 -15 -23 -18 -43 -14
-83 2 -28 1 -49 -3 -44 -5 4 -14 -10 -22 -30 -16 -48 -16 -56 0 -47 10 6 10 4
0 -7 -15 -15 -17 -33 -4 -25 5 4 6 -9 1 -29 -4 -19 -5 -36 -2 -39 3 -4 0 -6
-6 -6 -8 0 -11 -12 -8 -36 3 -25 0 -37 -10 -41 -12 -4 -12 -8 3 -20 10 -8 13
-12 6 -9 -6 4 -15 2 -18 -4 -4 -6 -3 -10 2 -9 25 4 36 -3 16 -11 -29 -12 -30
-47 -1 -71 16 -15 18 -19 5 -19 -8 0 -17 6 -20 13 -2 6 -7 -3 -11 -21 -5 -22
-3 -38 6 -49 10 -13 10 -17 1 -20 -18 -6 -16 -28 2 -43 9 -7 14 -18 12 -24 -3
-6 4 -26 15 -44 16 -26 18 -35 8 -47 -9 -11 -11 -34 -7 -74 8 -71 15 -91 33
-91 8 0 14 -7 14 -15 0 -8 -4 -15 -10 -15 -15 0 -12 -16 6 -34 8 -9 12 -16 7
-16 -4 0 0 -6 9 -13 9 -7 16 -20 15 -28 -2 -27 15 -88 29 -100 8 -6 14 -21 14
-33 1 -24 24 -59 33 -49 4 3 7 -3 7 -14 0 -11 11 -26 25 -33 14 -7 25 -21 25
-31 0 -9 7 -19 15 -23 8 -3 15 -12 15 -20 0 -15 121 -146 136 -146 5 0 25 -16
44 -35 19 -20 54 -45 77 -56 24 -12 47 -28 52 -38 9 -16 129 -81 150 -81 13 0
14 -10 1 -30 -6 -9 -5 -19 2 -28 8 -8 8 -16 2 -20 -5 -4 -9 -14 -9 -22 1 -22
-22 -36 -58 -35 -18 0 -36 -5 -42 -11 -14 -16 -65 -27 -65 -14 0 14 -28 12
-33 -2 -3 -10 -7 -10 -20 0 -9 8 -31 15 -49 16 -17 1 -34 8 -36 14 -2 7 -9 12
-16 12 -6 0 -29 9 -50 20 -22 10 -43 17 -47 14 -5 -3 -9 0 -9 7 0 15 -47 59
-55 51 -4 -4 -15 4 -25 18 -10 14 -25 25 -32 25 -7 0 -12 9 -10 18 2 12 -4 21
-17 24 -12 3 -21 9 -21 14 0 5 -7 9 -15 9 -9 0 -14 9 -13 23 1 33 -5 51 -21
58 -8 3 -16 16 -18 29 -2 13 -9 27 -15 31 -6 4 -8 14 -5 22 3 8 -4 25 -16 38
-12 13 -23 33 -24 44 -3 42 -29 106 -46 117 -9 6 -9 8 0 8 9 0 8 7 -2 27 -10
18 -11 31 -4 39 7 8 6 14 -1 19 -7 4 -10 16 -7 26 3 10 1 22 -4 25 -5 3 -9 11
-7 17 4 23 -13 107 -23 107 -5 0 -9 8 -9 18 0 12 3 13 8 5 4 -7 8 30 8 82 0
52 -3 95 -8 95 -5 0 -4 9 2 20 10 19 6 25 -14 21 -5 -1 -4 5 4 13 7 9 10 16 6
16 -4 0 0 10 8 23 9 13 14 47 14 87 0 36 3 73 7 83 5 11 1 25 -10 37 -11 12
-13 20 -7 20 7 0 12 -6 12 -12 0 -7 5 -5 11 5 8 13 7 22 -1 33 -10 11 -10 17
0 29 8 9 9 28 5 56 -5 28 -4 39 3 35 12 -7 20 33 18 84 -1 19 2 37 6 40 13 10
19 72 8 85 -7 8 -4 19 10 35 22 25 26 35 10 25 -5 -3 -10 -2 -10 2 0 5 -11 10
-24 11 -29 2 -44 -33 -48 -115 -2 -29 -6 -53 -10 -53 -13 0 -9 -35 5 -49 10
-10 9 -12 -3 -9 -16 3 -30 -58 -34 -147 -1 -28 -5 -55 -9 -61 -3 -6 -7 -39 -8
-75 -1 -35 -6 -72 -11 -81 -7 -14 -5 -16 8 -11 11 4 15 1 12 -13 -2 -12 2 -18
10 -16 8 1 11 -2 7 -7 -3 -6 -13 -7 -22 -4 -10 4 -14 2 -9 -5 3 -6 2 -13 -4
-17 -13 -8 11 -35 25 -28 6 2 3 -1 -6 -9 -28 -23 -46 -109 -29 -135 5 -8 3
-61 -3 -70 -9 -14 3 -73 14 -73 11 0 7 -22 -6 -33 -6 -6 -6 -10 2 -14 9 -3 10
-10 3 -24 -6 -11 -7 -19 -1 -19 5 0 8 -6 8 -12 -4 -31 15 -108 26 -108 7 0 13
-18 15 -43 1 -23 7 -53 13 -67 7 -14 17 -36 23 -50 13 -30 26 -45 46 -53 9 -3
10 -6 3 -6 -7 -1 -13 -9 -13 -18 1 -22 25 -55 33 -46 7 6 8 1 11 -47 0 -10 7
-25 14 -32 6 -6 12 -18 12 -24 0 -7 9 -15 19 -19 11 -3 22 -12 25 -20 3 -8 12
-15 21 -15 8 0 15 -6 15 -14 0 -16 65 -76 82 -76 6 0 8 -3 4 -7 -7 -8 132
-102 152 -103 7 0 26 -7 42 -15 24 -13 31 -13 42 -2 10 12 15 11 28 -6 12 -14
29 -19 68 -20 29 -1 56 3 60 8 4 6 21 11 37 11 17 1 42 4 58 8 20 5 27 3 27
-9 0 -8 5 -15 11 -15 6 0 7 -5 2 -12 -10 -18 -12 -58 -1 -58 4 0 8 -5 8 -11 0
-5 -6 -7 -12 -3 -10 5 -10 4 -1 -6 7 -8 8 -22 3 -42 -5 -16 -7 -35 -5 -41 7
-19 -8 -35 -35 -38 -14 -2 -26 -10 -26 -16 -3 -26 -5 -28 -15 -13 -9 12 -10
11 -6 -5 3 -11 8 -29 13 -39 5 -14 4 -17 -4 -12 -7 4 -12 1 -12 -8 0 -9 -5
-16 -10 -16 -7 0 -7 -6 0 -20 8 -14 7 -25 -2 -40 -11 -17 -10 -22 2 -30 13 -9
13 -12 -2 -24 -20 -15 -24 -46 -7 -46 8 0 8 -4 2 -12 -6 -7 -10 -46 -9 -86 1
-51 -2 -71 -10 -68 -7 3 -21 -4 -32 -14 -11 -10 -23 -16 -27 -12 -5 4 -5 -4
-2 -18 4 -16 0 -31 -10 -42 -17 -19 -25 -58 -12 -58 4 0 6 -10 4 -22 -6 -31
62 -88 108 -92 19 -2 40 -7 47 -11 9 -5 11 -4 6 3 -4 7 -3 12 3 12 5 0 11 -4
13 -10 2 -5 19 -12 38 -14 19 -3 36 -6 38 -7 7 -5 29 -4 44 3 9 5 19 4 23 -2
7 -11 211 -11 242 1 13 5 23 17 23 28 0 14 5 19 15 15 12 -5 14 1 11 25 -2 17
1 31 6 31 14 0 40 71 35 96 -2 13 0 21 4 18 5 -3 9 0 9 5 0 6 -4 11 -8 11 -5
0 -9 7 -9 15 0 8 4 15 8 15 12 0 20 32 10 44 -6 7 -4 25 4 49 9 25 9 39 2 44
-6 4 -7 1 -2 -7 5 -9 4 -11 -4 -6 -8 6 -9 12 -2 20 7 8 9 37 5 71 -3 32 -6 75
-7 96 -1 32 -5 39 -22 40 -16 1 -17 2 -2 6 9 2 17 10 17 16 0 20 -44 82 -60
85 -27 6 -42 25 -36 46 5 21 5 21 -11 1 -14 -18 -15 -18 -9 -2 3 10 6 23 6 28
0 6 3 8 8 6 4 -3 7 7 8 21 0 15 4 45 8 67 5 22 9 54 10 72 1 27 4 31 26 28 14
-2 44 -11 67 -20 24 -9 49 -15 57 -12 7 3 19 0 25 -6 7 -7 47 -21 89 -31 112
-28 433 -29 544 0 42 10 82 24 89 31 6 6 18 9 25 6 8 -3 33 3 57 12 23 9 53
18 67 20 22 3 25 -1 27 -28 3 -51 13 -110 22 -137 17 -48 20 -60 15 -60 -2 0
-9 10 -14 23 -9 19 -9 18 -5 -9 6 -31 -5 -49 -35 -56 -16 -3 -60 -65 -60 -85
0 -6 8 -14 18 -16 13 -4 12 -5 -4 -6 -16 -1 -22 -7 -22 -23 0 -13 -3 -56 -6
-97 -4 -46 -2 -78 4 -86 8 -10 7 -15 -1 -21 -8 -5 -9 -3 -4 6 5 8 4 11 -2 7
-7 -5 -7 -19 2 -44 8 -24 10 -42 4 -49 -11 -14 -1 -44 14 -44 7 0 7 -4 -1 -12
-14 -14 -16 -42 -2 -33 6 4 7 -1 3 -10 -3 -10 0 -21 8 -26 10 -6 10 -9 2 -9
-10 0 -10 -6 -1 -27 7 -16 17 -32 22 -38 6 -5 11 -21 12 -35 0 -14 5 -24 12
-23 7 2 12 -6 12 -17 0 -12 9 -24 23 -29 31 -12 235 -12 242 -1 4 6 14 7 23 2
15 -7 37 -8 45 -3 1 1 18 4 37 7 19 2 37 9 38 14 2 6 8 10 13 10 6 0 7 -5 3
-12 -5 -7 -3 -8 6 -3 7 4 28 9 47 11 46 4 114 61 108 92 -2 12 0 22 4 22 14 0
5 39 -12 58 -11 12 -15 26 -11 37 8 21 -13 36 -41 30 -11 -3 -14 -2 -7 1 16 7
6 25 -11 18 -9 -3 -12 15 -11 71 1 42 -3 78 -7 81 -5 3 -9 10 -9 15 0 6 5 7
10 4 16 -10 11 25 -6 42 -11 12 -12 18 -4 23 17 10 17 15 2 33 -10 11 -11 21
-4 34 8 13 5 21 -10 34 -16 14 -17 22 -9 38 14 26 15 52 1 31 -9 -15 -11 -13
-14 13 0 6 -12 14 -26 16 -27 3 -42 19 -35 38 2 6 0 25 -5 41 -5 20 -4 34 3
42 9 10 9 11 0 6 -7 -4 -13 -2 -13 3 0 6 4 11 8 11 4 0 8 24 7 54 0 30 3 52 7
50 14 -9 52 -17 83 -18 17 0 33 -5 37 -11 4 -5 31 -9 60 -8 40 1 56 6 69 22
14 17 19 18 29 7 9 -12 21 -10 75 14 72 32 168 94 159 102 -3 4 4 9 16 13 25
8 70 55 70 72 0 7 7 13 15 13 8 0 19 9 25 20 6 11 17 20 25 20 8 0 15 9 15 19
0 10 7 22 16 25 8 3 13 10 9 15 -8 14 5 62 16 56 10 -7 29 27 29 54 0 11 6 26
13 33 11 12 19 28 47 91 5 12 11 41 12 64 2 25 8 43 15 43 11 0 30 77 26 108
0 6 3 12 8 12 6 0 5 8 -1 19 -7 14 -6 21 3 24 8 4 9 8 2 14 -13 10 -12 19 3
56 14 32 15 57 5 57 -10 0 -9 53 2 70 6 9 4 11 -6 5 -12 -8 -12 -6 0 8 12 15
12 25 1 59 -6 23 -20 48 -29 56 -9 7 -10 10 -2 6 10 -5 13 -3 8 9 -4 11 -2 14
8 11 10 -4 12 0 8 15 -3 12 -8 21 -12 21 -4 0 -7 9 -8 21 -1 15 3 19 13 15 8
-3 13 -2 10 2 -9 15 -18 76 -17 116 0 21 -2 43 -6 49 -4 6 -8 34 -9 62 -4 84
-18 150 -33 147 -8 -1 -10 2 -5 10 12 18 15 48 6 48 -4 0 -8 24 -10 53 -4 82
-19 117 -47 115 -30 -3 -40 -25 -20 -45 12 -11 13 -19 5 -28 -11 -13 -5 -75 8
-85 4 -3 8 -21 8 -40 2 -84 4 -96 15 -80 7 11 8 1 4 -36 -4 -33 -3 -54 4 -59
8 -4 8 -12 1 -26 -7 -13 -8 -25 -1 -37 6 -9 11 -11 11 -4 0 6 5 12 12 12 6 0
4 -8 -6 -19 -11 -12 -15 -25 -10 -33 4 -7 7 -25 6 -41 -2 -23 1 -28 13 -23 11
4 14 2 9 -6 -5 -8 -2 -9 9 -5 10 3 17 2 17 -2 0 -5 -7 -11 -15 -15 -8 -3 -15
-1 -15 4 0 6 -4 10 -10 10 -16 0 -12 -73 6 -98 8 -12 12 -22 8 -22 -3 0 0 -8
7 -17 12 -14 12 -16 0 -8 -11 6 -13 2 -9 -19 3 -14 2 -26 -2 -26 -4 0 -7 -42
-7 -94 1 -52 5 -89 9 -83 5 8 8 6 8 -5 0 -10 -4 -18 -9 -18 -9 0 -17 -34 -27
-115 -3 -27 -10 -55 -15 -61 -5 -6 -5 -14 1 -20 6 -6 4 -20 -5 -37 -10 -20
-11 -27 -2 -27 9 0 9 -2 0 -8 -17 -11 -43 -75 -46 -117 -1 -11 -12 -31 -23
-44 -13 -13 -19 -31 -17 -42 3 -10 0 -19 -6 -19 -6 0 -11 -11 -11 -25 0 -15
-7 -29 -17 -33 -17 -7 -24 -20 -27 -53 -1 -19 -24 -42 -50 -52 -11 -4 -16 -13
-12 -22 4 -10 -3 -19 -18 -25 -13 -4 -26 -16 -30 -25 -3 -9 -11 -15 -18 -13
-14 5 -58 -34 -58 -51 0 -7 -4 -10 -9 -7 -4 3 -25 -4 -47 -14 -21 -11 -44 -20
-50 -20 -7 0 -14 -5 -16 -12 -2 -6 -19 -13 -36 -14 -18 -1 -40 -8 -48 -15 -13
-10 -17 -10 -24 1 -5 8 -15 10 -26 5 -34 -14 -45 -14 -63 3 -9 9 -32 18 -50
19 -35 1 -51 11 -54 34 -2 8 -6 19 -10 26 -4 6 -3 14 3 18 7 4 7 13 -1 26 -12
24 -14 22 31 39 45 18 113 59 122 76 5 7 28 22 53 34 24 12 60 37 79 56 19 19
37 34 41 34 14 0 135 132 135 146 0 8 7 17 15 20 8 4 15 14 15 23 0 10 11 24
25 31 14 7 25 22 25 33 0 11 3 17 7 14 9 -9 32 24 33 47 0 11 6 27 13 35 17
21 37 89 31 106 -3 7 2 15 11 19 9 3 13 10 10 16 -3 5 -2 10 3 10 5 0 12 9 15
20 3 11 1 20 -4 20 -5 0 -9 7 -9 15 0 8 6 15 14 15 22 0 37 62 19 73 -5 2 -2
2 5 1 13 -4 16 7 12 41 -4 34 -5 40 -13 53 -5 7 0 26 11 45 11 17 18 37 15 43
-2 6 3 17 12 24 18 15 20 37 3 43 -10 3 -10 7 0 20 9 11 11 27 6 49 -4 18 -9
27 -11 21 -3 -7 -12 -13 -20 -13 -13 0 -11 4 5 19 12 10 22 29 22 42 -1 23 -1
23 -15 5 -8 -11 -18 -17 -21 -13 -4 4 -1 13 6 22 10 12 10 15 -1 15 -11 0 -11
2 1 9 8 6 18 7 24 4 5 -3 6 -1 2 6 -4 6 -13 9 -19 5 -7 -3 -4 1 6 9 15 12 15
16 3 20 -10 4 -13 16 -10 41 2 20 0 36 -6 36 -5 0 -6 7 -3 17 4 9 2 14 -3 11
-5 -3 -9 7 -10 23 -1 15 3 26 7 23 13 -8 11 10 -3 25 -10 11 -10 13 0 7 6 -4
12 -6 12 -4 -1 13 -29 91 -30 83 -1 -5 -5 1 -9 15 -4 14 -4 36 1 49 10 27 -21
88 -41 83 -7 -1 -10 2 -6 8 3 6 11 8 16 5 14 -9 11 23 -6 55 -9 17 -16 33 -18
37 -1 5 -6 7 -10 5 -5 -1 -5 2 -2 8 4 6 2 23 -4 38 -6 15 -12 36 -14 47 -2 11
-14 40 -25 65 -12 25 -22 50 -22 57 0 25 -65 136 -82 141 -19 5 -25 22 -8 22
6 0 10 5 10 11 0 6 -7 9 -15 5 -8 -3 -15 -1 -15 3 0 5 5 11 12 13 8 3 5 11 -8
24 -23 24 -27 56 -12 112 8 32 8 46 0 51 -6 3 -10 15 -8 26 2 11 -6 28 -18 38
-21 18 -21 18 -24 -3 -2 -11 1 -27 7 -33 5 -7 8 -22 6 -32 -2 -11 -4 -24 -5
-30 0 -5 -7 -2 -14 8 -8 10 -24 20 -36 22 -22 4 -22 4 -4 -16 16 -17 16 -22 4
-29 -11 -7 -11 -10 -2 -10 7 0 17 -12 22 -26 9 -22 6 -34 -14 -68 -40 -68
-179 -197 -236 -218 -11 -4 -23 -14 -26 -23 -3 -8 -10 -13 -14 -10 -5 3 -11 1
-15 -5 -4 -6 -11 -8 -16 -4 -5 3 -8 0 -7 -8 2 -7 -3 -12 -11 -10 -17 4 -111
-39 -111 -51 0 -5 -7 -6 -16 -3 -13 5 -14 4 -5 -7 9 -11 4 -14 -24 -12 -23 2
-57 -8 -93 -26 -31 -16 -62 -29 -68 -29 -7 0 -25 -7 -40 -15 -16 -8 -37 -15
-46 -15 -9 0 -20 -5 -24 -11 -3 -6 -15 -9 -25 -6 -11 3 -19 1 -19 -5 0 -5 -4
-6 -10 -3 -5 3 -10 2 -10 -4 0 -6 -6 -8 -13 -5 -7 2 -30 -2 -50 -11 -21 -9
-42 -13 -47 -10 -6 4 -10 1 -10 -4 0 -6 -3 -10 -7 -10 -5 1 -10 0 -13 -1 -3
-1 -16 -3 -30 -5 -48 -6 -105 -24 -108 -34 -2 -5 -10 -7 -19 -4 -8 3 -19 0
-24 -8 -6 -10 -9 -10 -9 -1 0 16 -29 16 -36 -1 -6 -17 -114 -17 -132 1 -7 6
-18 12 -23 12 -5 0 -9 -6 -9 -12 0 -9 -3 -9 -9 1 -5 8 -16 11 -24 8 -9 -3 -17
-1 -19 4 -3 10 -60 28 -108 34 -14 2 -27 4 -30 5 -3 1 -8 2 -12 1 -5 0 -8 3
-8 8 0 8 -44 19 -97 24 -13 1 -23 6 -23 10 0 5 -4 5 -10 2 -5 -3 -10 -2 -10 3
0 6 -8 8 -19 5 -10 -3 -22 0 -25 6 -4 6 -15 11 -24 11 -9 0 -30 7 -46 15 -15
8 -33 15 -40 15 -6 0 -37 13 -68 29 -32 16 -71 28 -91 27 -29 -1 -33 1 -24 13
10 11 9 13 -3 9 -8 -2 -21 2 -29 9 -7 8 -26 17 -42 20 -16 3 -29 10 -29 15 0
5 -10 8 -22 6 -15 -2 -22 2 -20 10 1 8 -2 11 -7 8 -5 -4 -12 -2 -16 4 -4 6
-10 8 -15 5 -4 -3 -11 2 -14 10 -3 9 -15 19 -26 23 -57 21 -196 150 -237 219
-21 36 -22 45 -12 65 7 13 17 26 23 30 8 5 7 8 -1 8 -7 0 -13 9 -13 21 0 11 4
18 9 14 5 -3 13 0 17 6 4 8 3 9 -4 5 -7 -4 -12 -2 -12 5 0 7 -12 -1 -28 -18
l-27 -31 1 31 c0 18 4 40 8 49 4 9 6 24 4 33 -3 15 -5 15 -24 -2z m-89 -383
c3 -5 1 -10 -4 -10 -6 0 -11 5 -11 10 0 6 2 10 4 10 3 0 8 -4 11 -10z m2805 0
c0 -5 -5 -10 -11 -10 -5 0 -7 5 -4 10 3 6 8 10 11 10 2 0 4 -4 4 -10z m-2940
-665 c11 -13 10 -14 -5 -9 -13 5 -16 4 -11 -4 4 -7 18 -12 32 -12 13 0 24 -4
24 -10 0 -5 3 -9 8 -9 28 5 72 -3 70 -12 -2 -6 15 -17 37 -25 22 -9 54 -21 70
-29 63 -28 116 -45 140 -45 13 0 26 -4 29 -9 3 -5 18 -11 33 -14 16 -3 71 -16
123 -30 93 -24 128 -31 220 -42 25 -3 59 -11 77 -16 18 -6 40 -9 50 -8 10 2
29 0 43 -3 39 -10 178 -23 245 -23 33 0 63 -4 68 -10 4 -6 11 -5 17 5 7 12 10
12 10 1 0 -9 10 -12 35 -9 19 2 35 0 35 -5 0 -4 5 -5 10 -2 17 10 120 14 126
4 7 -12 81 -12 88 0 6 9 111 6 127 -4 5 -4 9 -2 9 2 0 5 16 7 35 5 25 -3 35 0
35 9 0 11 3 11 10 -1 6 -10 13 -11 18 -5 4 6 34 10 67 10 71 0 222 14 250 23
11 3 28 5 38 3 10 -1 32 2 50 8 18 6 55 13 82 16 92 11 225 40 340 75 33 10
87 26 120 36 33 10 69 23 80 30 11 6 41 17 66 25 31 8 45 17 42 26 -4 9 5 13
28 14 19 1 37 1 42 0 4 0 7 3 7 9 0 5 11 10 24 10 14 0 28 5 32 12 5 8 1 9
-12 4 -18 -7 -18 -6 -1 11 15 16 19 16 27 3 5 -8 10 -25 10 -37 0 -12 6 -24
13 -26 9 -4 9 -7 0 -14 -13 -9 -6 -56 7 -48 4 3 14 -3 21 -12 12 -15 12 -16
-4 -10 -16 6 -17 -1 -14 -81 3 -71 6 -87 19 -84 21 3 18 -30 -4 -36 -19 -5
-19 -7 -22 -132 -1 -36 -5 -71 -10 -79 -5 -7 -10 -21 -11 -30 -1 -9 -7 -29
-14 -46 -7 -16 -10 -40 -8 -52 2 -12 0 -20 -4 -17 -5 3 -9 0 -9 -7 0 -35 -35
-87 -64 -97 -17 -6 -95 -33 -173 -61 -79 -27 -143 -48 -143 -45 0 2 -11 -1
-25 -6 -27 -10 -61 -18 -109 -25 -16 -2 -43 -9 -60 -15 -17 -5 -44 -11 -61
-12 -16 -1 -34 -4 -40 -7 -5 -3 -21 -6 -35 -6 -31 -1 -112 -15 -124 -22 -4 -3
-27 -7 -50 -9 -22 -3 -61 -7 -86 -10 -25 -3 -62 -6 -82 -5 -20 0 -40 -4 -43
-9 -3 -6 -11 -10 -16 -10 -6 0 -8 4 -4 10 3 5 -7 5 -25 -1 -17 -6 -37 -8 -45
-5 -8 3 -15 1 -15 -3 0 -5 -148 -9 -330 -9 -181 0 -330 4 -330 9 0 4 -7 6 -15
3 -8 -3 -28 -1 -45 5 -18 6 -28 6 -25 1 4 -6 2 -10 -4 -10 -5 0 -13 4 -16 10
-3 5 -23 9 -43 9 -20 -1 -62 2 -92 6 -30 3 -68 8 -85 9 -16 2 -37 6 -45 9 -26
10 -124 25 -133 20 -4 -2 -13 -1 -20 4 -7 5 -25 10 -42 11 -16 1 -44 7 -61 12
-17 6 -44 13 -60 15 -48 7 -82 15 -109 25 -14 5 -25 8 -25 6 0 -3 -64 18 -142
45 -79 28 -157 55 -174 61 -29 10 -64 62 -64 97 0 7 -4 10 -9 7 -4 -3 -6 5 -4
17 2 12 -1 36 -8 52 -7 17 -13 37 -14 46 -1 9 -6 23 -11 30 -5 8 -9 43 -10 79
-3 125 -3 127 -22 132 -23 6 -25 39 -3 36 12 -2 16 9 17 52 1 30 3 60 4 65 1
6 2 20 1 32 -1 17 -6 20 -23 16 -23 -5 -23 -5 -3 10 11 8 23 13 26 11 9 -5 20
39 11 46 -11 8 -14 32 -2 25 5 -3 10 3 10 14 0 25 10 51 20 51 4 0 13 -7 20
-15z m-80 -216 c0 -14 -17 -10 -23 5 -4 10 -1 13 9 9 7 -3 14 -9 14 -14z
m-136 -75 c3 -8 2 -12 -4 -9 -6 3 -10 10 -10 16 0 14 7 11 14 -7z m3497 -7
c-10 -9 -11 -8 -5 6 3 10 9 15 12 12 3 -3 0 -11 -7 -18z m-3481 -68 c-6 -10
-13 -19 -16 -19 -3 0 -2 5 1 10 3 6 1 10 -4 10 -6 0 -11 4 -11 10 0 5 7 6 17
3 12 -5 14 -3 8 7 -5 9 -4 11 3 6 9 -5 9 -13 2 -27z m140 -239 c0 -5 -2 -10
-4 -10 -3 0 -8 5 -11 10 -3 6 -1 10 4 10 6 0 11 -4 11 -10z m-177 -86 c-4 -12
-8 -13 -14 -3 -9 15 -2 32 11 24 5 -3 6 -13 3 -21z m3550 0 c-4 -12 -8 -13
-14 -3 -9 15 -2 32 11 24 5 -3 6 -13 3 -21z m-2643 -794 c0 -5 12 -13 28 -16
15 -4 30 -12 34 -17 3 -6 17 -11 30 -13 12 -1 23 -3 23 -4 0 -1 7 -3 15 -5 43
-11 165 -65 169 -76 2 -7 -1 -9 -8 -5 -9 6 -11 -3 -10 -31 2 -21 -3 -48 -9
-60 -16 -28 -15 -46 1 -37 9 6 9 4 1 -7 -6 -8 -14 -30 -18 -50 -4 -26 -13 -38
-27 -42 -15 -4 -19 -11 -14 -26 5 -18 4 -19 -25 -8 -25 9 -33 9 -39 -2 -5 -8
-10 -9 -12 -3 -2 6 -33 12 -67 15 -59 3 -88 18 -76 38 2 4 0 19 -5 32 -7 18
-7 27 1 29 7 3 9 12 4 24 -15 37 -15 142 0 155 19 15 18 39 -1 39 -13 0 -17 6
-14 26 0 4 -5 10 -12 15 -23 14 -19 39 7 39 13 0 24 -4 24 -10z m1766 -6 c-1
-8 -8 -19 -15 -23 -7 -5 -12 -11 -12 -15 3 -20 -1 -26 -14 -26 -19 0 -19 -17
-1 -35 15 -16 15 -123 0 -159 -5 -13 -3 -21 4 -24 8 -2 8 -11 1 -29 -5 -13 -7
-28 -5 -32 3 -4 1 -13 -4 -20 -7 -13 -20 -16 -107 -22 -18 -2 -33 -8 -33 -14
0 -5 -5 -3 -10 5 -7 12 -15 13 -40 3 -29 -11 -30 -10 -25 8 5 15 1 22 -14 26
-17 4 -32 37 -33 70 0 5 -4 13 -9 20 -7 7 -5 13 3 16 10 3 8 10 -6 26 -15 16
-16 21 -5 22 8 0 9 3 4 5 -6 2 -9 21 -7 41 3 27 1 34 -8 28 -8 -5 -11 -3 -9 4
4 11 126 65 169 76 8 2 15 4 15 5 0 1 11 3 23 4 13 2 27 7 30 13 4 5 19 13 35
17 15 3 27 11 27 16 0 6 11 10 24 10 16 0 23 -5 22 -16z m101 -140 c-3 -3 -12
-4 -19 -1 -8 3 -5 6 6 6 11 1 17 -2 13 -5z m-1570 -116 c-3 -8 -6 -5 -6 6 -1
11 2 17 5 13 3 -3 4 -12 1 -19z m1130 0 c-3 -8 -6 -5 -6 6 -1 11 2 17 5 13 3
-3 4 -12 1 -19z m-1038 -325 c-7 -7 -15 -11 -18 -7 -3 4 0 9 7 11 10 4 10 8 0
21 -12 15 -11 16 5 3 13 -11 15 -17 6 -28z m951 22 c-9 -10 -9 -15 -1 -15 6 0
11 -5 11 -11 0 -8 -5 -8 -15 1 -12 10 -13 16 -4 26 6 8 14 14 16 14 3 0 0 -7
-7 -15z m10 -135 c0 -5 -2 -10 -4 -10 -3 0 -8 5 -11 10 -3 6 -1 10 4 10 6 0
11 -4 11 -10z m-985 -290 c3 -5 1 -10 -4 -10 -6 0 -11 5 -11 10 0 6 2 10 4 10
3 0 8 -4 11 -10z m1005 0 c0 -5 -5 -10 -11 -10 -5 0 -7 5 -4 10 3 6 8 10 11
10 2 0 4 -4 4 -10z"/>
<path d="M8977 7663 c-4 -3 -7 -11 -7 -17 0 -6 5 -5 12 2 6 6 9 14 7 17 -3 3
-9 2 -12 -2z"/>
<path d="M6015 7650 c3 -5 8 -10 11 -10 2 0 4 5 4 10 0 6 -5 10 -11 10 -5 0
-7 -4 -4 -10z"/>
<path d="M6024 7616 c-15 -16 -6 -40 11 -26 9 8 12 5 11 -12 -1 -13 7 -36 18
-51 l20 -28 9 23 c6 17 3 26 -10 36 -10 7 -18 16 -18 20 0 4 -7 17 -15 28 -11
16 -18 19 -26 10z"/>
<path d="M8950 7606 c-8 -11 -14 -24 -15 -28 0 -4 -8 -13 -18 -20 -14 -11 -16
-19 -9 -38 l9 -24 12 23 c8 14 18 20 27 17 10 -4 12 -2 8 6 -4 6 -8 22 -10 35
-2 19 1 22 11 13 17 -14 27 11 10 26 -9 9 -15 6 -25 -10z"/>
<path d="M5992 7474 c-12 -19 -24 -43 -25 -55 -2 -11 -10 -25 -18 -31 -11 -7
-11 -11 -1 -15 9 -4 8 -9 -7 -22 -17 -15 -17 -19 -5 -36 8 -10 14 -15 14 -9 0
5 4 3 9 -4 11 -18 24 32 16 59 -5 15 -1 19 14 19 14 0 21 6 21 20 0 11 5 20
11 20 8 0 10 12 6 34 -4 26 -2 34 7 30 7 -3 13 1 13 9 0 26 -33 15 -55 -19z"/>
<path d="M8953 7493 c0 -8 6 -12 13 -9 9 4 11 -4 7 -30 -4 -22 -2 -34 6 -34 6
0 11 -8 11 -19 0 -10 9 -21 19 -24 13 -3 18 -11 15 -24 -3 -10 -1 -29 5 -43 5
-14 10 -19 10 -12 1 7 5 11 10 8 12 -8 22 20 15 39 -4 8 -11 15 -18 15 -6 0
-4 5 4 10 13 9 13 11 1 19 -8 5 -16 19 -18 30 -8 53 -80 119 -80 74z"/>
<path d="M5920 7271 c-21 -6 -22 -8 -7 -14 22 -8 22 -24 -2 -32 -22 -7 -52
-62 -44 -82 3 -7 -2 -13 -11 -13 -10 0 -19 -15 -26 -42 -6 -24 -14 -52 -17
-62 -4 -16 -1 -18 17 -13 18 5 21 2 17 -14 -4 -15 -2 -18 7 -10 7 6 17 7 21 3
5 -4 5 -2 2 4 -3 6 0 22 7 36 9 18 10 31 3 43 -7 13 -6 16 2 11 8 -5 10 4 6
28 -3 29 -1 36 13 36 15 0 15 2 2 10 -13 9 -13 12 3 21 9 5 17 19 17 29 0 11
3 20 8 20 4 0 7 11 7 25 0 14 0 25 0 24 0 -1 -11 -4 -25 -8z"/>
<path d="M9055 7255 c0 -14 3 -25 7 -25 4 0 8 -10 10 -22 2 -13 9 -22 16 -20
16 3 16 -25 0 -31 -8 -3 -6 -6 5 -6 19 -1 24 -21 5 -21 -9 0 -9 -3 -1 -11 6
-6 9 -18 6 -27 -5 -11 -3 -13 7 -7 10 6 10 4 3 -10 -7 -12 -6 -25 3 -43 7 -14
10 -30 7 -35 -4 -6 -1 -7 7 -2 10 6 12 4 7 -8 -4 -11 -2 -14 7 -11 8 3 12 14
9 24 -4 15 -1 18 18 13 18 -5 21 -3 16 10 -3 8 -9 32 -13 52 -3 20 -15 42 -25
48 -11 7 -19 23 -19 38 0 25 -26 62 -52 72 -10 4 -8 10 6 21 11 9 15 16 9 16
-6 0 -17 2 -25 5 -9 4 -13 -3 -13 -20z"/>
<path d="M5810 6991 c0 -6 4 -12 8 -15 5 -3 9 1 9 9 0 8 -4 15 -9 15 -4 0 -8
-4 -8 -9z"/>
<path d="M5875 6260 c3 -5 8 -10 11 -10 2 0 4 5 4 10 0 6 -5 10 -11 10 -5 0
-7 -4 -4 -10z"/>
<path d="M9110 6259 c0 -5 5 -7 10 -4 6 3 10 8 10 11 0 2 -4 4 -10 4 -5 0 -10
-5 -10 -11z"/>
</g>
</svg>
